<svg viewBox="0 0 511.99944 511" xmlns="http://www.w3.org/2000/svg"><path d="m7.855469 8c-28.46875 28.46875 27.78125 105.222656 51.945312 137.898438-18.808593 33.328124-28.820312 71.101562-28.820312 110.414062 0 124.457031 100.71875 225.191406 225.191406 225.191406 39.285156 0 77.035156-10 110.347656-28.785156 32.554688 24.074219 109.503907 80.371094 137.964844 51.910156 27.503906-27.503906-27.515625-104.011718-52.105469-137.609375 18.914063-33.398437 28.980469-71.277343 28.980469-110.703125 0-124.457031-100.71875-225.191406-225.191406-225.191406-39.425781 0-77.304688 10.066406-110.703125 28.980469-32.027344-23.441407-109.871094-79.839844-137.609375-52.105469zm53.152343 248.3125c0-1.902344.035157-3.796875.089844-5.6875l29.9375 14.96875v56.988281l28.738282 28.742188-7.363282 36.832031c-31.902344-34.753906-51.402344-81.0625-51.402344-131.84375zm77.300782 155.445312 14.058594-70.300781-31.308594-31.3125v-63.109375l-56.421875-28.210937c3.1875-16.316407 8.40625-31.914063 15.394531-46.507813 22.640625 28.640625 49.050781 59.277344 77.867188 90.242188-4.3125 6.910156-6.816407 15.054687-6.816407 23.78125 0 24.835937 20.207031 45.039062 45.039063 45.039062 8.351562 0 16.171875-2.292968 22.882812-6.269531 17.453125 17.039063 34.929688 33.433594 52.179688 48.96875v76.828125c-4.953125.378906-9.960938.570312-15.011719.570312-44.246094 0-85.09375-14.808593-117.863281-39.71875zm57.8125-110.40625c-8.277344 0-15.011719-6.734374-15.011719-15.011718s6.734375-15.011719 15.011719-15.011719 15.011718 6.734375 15.011718 15.011719-6.734374 15.011718-15.011718 15.011718zm105.089844 144.871094v-45.773437c13.234374 11.320312 26.238281 22.035156 38.886718 32.039062-12.308594 5.886719-25.328125 10.519531-38.886718 13.734375zm144.867187-144.871094c-11.1875 47.179688-39.542969 87.78125-78.085937 114.820313-21.28125-16.460937-43.78125-35.1875-66.785157-55.550781v-68.0625l21.230469-21.230469h38.820312v30.023437zm36.339844 181.367188c-6.308594-.179688-28.71875-4.492188-86.664063-45.871094-.839844-.597656-1.6875-1.210937-2.535156-1.820312 15.554688-11.976563 29.398438-25.789063 41.40625-41.328125 38.402344 53.871093 47.421875 80.441406 47.792969 89.019531zm-31.65625-211.390625h-59.476563v-30.027344h-81.28125l-38.820312 38.820313v53.238281c-10.933594-10.167969-21.90625-20.636719-32.847656-31.339844 1.820312-4.886719 2.820312-10.167969 2.820312-15.679687 0-24.835938-20.203125-45.039063-45.035156-45.039063-5.144532 0-10.082032.878907-14.6875 2.472657-31.894532-34.1875-61.007813-68.207032-85.082032-99.339844 18.203126-25.925782 42.539063-47.246094 70.894532-61.820313l17.152344 68.613281h86.785156v30.023438h68.84375l37.566406 37.566406 47.496094-60.164062c16.679687 28.742187 26.246094 62.105468 26.246094 97.664062 0 5.050782-.195313 10.054688-.574219 15.011719zm-43.558594-138.476563-32.253906 40.859376-22.484375-22.484376h-51.253906v-30.023437h-93.367188l-12.578125-50.308594c19.175781-6.316406 39.644531-9.742187 60.90625-9.742187 60.8125 0 115.210937 27.960937 151.03125 71.699218zm-288.417969-54.992187c-14.984375 11.585937-28.914062 25.296875-41.285156 41.351563-12.777344-17.75-46.972656-67.226563-47.703125-89.140626 8.601563.390626 35.175781 9.429688 88.988281 47.789063zm0 0"></path></svg>